<mxfile host="app.diagrams.net" modified="2022-04-27T10:31:39.511Z" agent="5.0 (Macintosh; Intel Mac OS X 10_15_7) AppleWebKit/537.36 (KHTML, like Gecko) Chrome/100.0.4896.127 Safari/537.36" etag="3Az6Jl6gUGdkqzd8cNRM" version="17.4.6" type="github">
  <diagram id="2bqcgiyvNj0rg7tnNq0Y" name="Page-1">
    <mxGraphModel dx="2075" dy="809" grid="1" gridSize="10" guides="1" tooltips="1" connect="1" arrows="1" fold="1" page="1" pageScale="1" pageWidth="827" pageHeight="1169" math="0" shadow="0">
      <root>
        <mxCell id="0" />
        <mxCell id="1" parent="0" />
        <mxCell id="zXytNvUXBCk0Ej2Y4z_r-1" value="BladeDB&lt;br&gt;(qimei36)" style="shape=cylinder3;whiteSpace=wrap;html=1;boundedLbl=1;backgroundOutline=1;size=15;" vertex="1" parent="1">
          <mxGeometry x="440" y="338" width="60" height="80" as="geometry" />
        </mxCell>
        <mxCell id="zXytNvUXBCk0Ej2Y4z_r-2" value="BladeDB&lt;br&gt;(omgid)" style="shape=cylinder3;whiteSpace=wrap;html=1;boundedLbl=1;backgroundOutline=1;size=15;" vertex="1" parent="1">
          <mxGeometry x="440" y="468" width="60" height="80" as="geometry" />
        </mxCell>
        <mxCell id="zXytNvUXBCk0Ej2Y4z_r-3" value="Actor" style="shape=umlActor;verticalLabelPosition=bottom;verticalAlign=top;html=1;outlineConnect=0;" vertex="1" parent="1">
          <mxGeometry x="-96" y="416" width="30" height="60" as="geometry" />
        </mxCell>
        <mxCell id="zXytNvUXBCk0Ej2Y4z_r-4" value="聚合分析" style="rounded=1;whiteSpace=wrap;html=1;" vertex="1" parent="1">
          <mxGeometry x="230" y="310" width="90" height="60" as="geometry" />
        </mxCell>
        <mxCell id="zXytNvUXBCk0Ej2Y4z_r-5" value="下钻" style="rounded=1;whiteSpace=wrap;html=1;" vertex="1" parent="1">
          <mxGeometry x="230" y="410" width="90" height="60" as="geometry" />
        </mxCell>
        <mxCell id="zXytNvUXBCk0Ej2Y4z_r-6" value="TGI" style="rounded=1;whiteSpace=wrap;html=1;" vertex="1" parent="1">
          <mxGeometry x="230" y="510" width="90" height="60" as="geometry" />
        </mxCell>
        <mxCell id="zXytNvUXBCk0Ej2Y4z_r-13" value="" style="endArrow=classic;html=1;rounded=0;entryX=0;entryY=0.5;entryDx=0;entryDy=0;exitX=1;exitY=0.3333333333333333;exitDx=0;exitDy=0;exitPerimeter=0;" edge="1" parent="1" source="zXytNvUXBCk0Ej2Y4z_r-3" target="zXytNvUXBCk0Ej2Y4z_r-10">
          <mxGeometry width="50" height="50" relative="1" as="geometry">
            <mxPoint x="-166" y="592" as="sourcePoint" />
            <mxPoint x="-116" y="542" as="targetPoint" />
          </mxGeometry>
        </mxCell>
        <mxCell id="zXytNvUXBCk0Ej2Y4z_r-14" value="" style="endArrow=classic;html=1;rounded=0;entryX=0;entryY=0.5;entryDx=0;entryDy=0;exitX=1;exitY=0.3333333333333333;exitDx=0;exitDy=0;exitPerimeter=0;" edge="1" parent="1" source="zXytNvUXBCk0Ej2Y4z_r-3" target="zXytNvUXBCk0Ej2Y4z_r-7">
          <mxGeometry width="50" height="50" relative="1" as="geometry">
            <mxPoint x="-66" y="422" as="sourcePoint" />
            <mxPoint x="14" y="362" as="targetPoint" />
          </mxGeometry>
        </mxCell>
        <mxCell id="zXytNvUXBCk0Ej2Y4z_r-15" value="" style="group" vertex="1" connectable="0" parent="1">
          <mxGeometry x="4" y="492" width="90" height="90" as="geometry" />
        </mxCell>
        <mxCell id="zXytNvUXBCk0Ej2Y4z_r-7" value="" style="rounded=0;whiteSpace=wrap;html=1;" vertex="1" parent="zXytNvUXBCk0Ej2Y4z_r-15">
          <mxGeometry width="90" height="90" as="geometry" />
        </mxCell>
        <mxCell id="zXytNvUXBCk0Ej2Y4z_r-8" value="指标" style="rounded=0;whiteSpace=wrap;html=1;" vertex="1" parent="zXytNvUXBCk0Ej2Y4z_r-15">
          <mxGeometry x="10" y="9" width="70" height="30" as="geometry" />
        </mxCell>
        <mxCell id="zXytNvUXBCk0Ej2Y4z_r-9" value="指标模板" style="rounded=0;whiteSpace=wrap;html=1;" vertex="1" parent="zXytNvUXBCk0Ej2Y4z_r-15">
          <mxGeometry x="10" y="50" width="70" height="30" as="geometry" />
        </mxCell>
        <mxCell id="zXytNvUXBCk0Ej2Y4z_r-16" value="" style="group" vertex="1" connectable="0" parent="1">
          <mxGeometry x="4" y="312" width="90" height="90" as="geometry" />
        </mxCell>
        <mxCell id="zXytNvUXBCk0Ej2Y4z_r-10" value="" style="rounded=0;whiteSpace=wrap;html=1;" vertex="1" parent="zXytNvUXBCk0Ej2Y4z_r-16">
          <mxGeometry width="90" height="90" as="geometry" />
        </mxCell>
        <mxCell id="zXytNvUXBCk0Ej2Y4z_r-11" value="人群" style="rounded=0;whiteSpace=wrap;html=1;" vertex="1" parent="zXytNvUXBCk0Ej2Y4z_r-16">
          <mxGeometry x="10" y="9" width="70" height="30" as="geometry" />
        </mxCell>
        <mxCell id="zXytNvUXBCk0Ej2Y4z_r-12" value="自定义" style="rounded=0;whiteSpace=wrap;html=1;" vertex="1" parent="zXytNvUXBCk0Ej2Y4z_r-16">
          <mxGeometry x="10" y="49" width="70" height="30" as="geometry" />
        </mxCell>
        <mxCell id="zXytNvUXBCk0Ej2Y4z_r-18" value="输入" style="text;html=1;strokeColor=none;fillColor=none;align=center;verticalAlign=middle;whiteSpace=wrap;rounded=0;fontSize=18;" vertex="1" parent="1">
          <mxGeometry x="19" y="250" width="60" height="30" as="geometry" />
        </mxCell>
        <mxCell id="zXytNvUXBCk0Ej2Y4z_r-19" value="查询模板" style="text;html=1;strokeColor=none;fillColor=none;align=center;verticalAlign=middle;whiteSpace=wrap;rounded=0;fontSize=18;" vertex="1" parent="1">
          <mxGeometry x="240" y="250" width="80" height="30" as="geometry" />
        </mxCell>
        <mxCell id="zXytNvUXBCk0Ej2Y4z_r-20" value="存储" style="text;html=1;strokeColor=none;fillColor=none;align=center;verticalAlign=middle;whiteSpace=wrap;rounded=0;fontSize=18;" vertex="1" parent="1">
          <mxGeometry x="440" y="248" width="60" height="30" as="geometry" />
        </mxCell>
        <mxCell id="zXytNvUXBCk0Ej2Y4z_r-22" value="generate" style="html=1;shadow=0;dashed=0;align=center;verticalAlign=middle;shape=mxgraph.arrows2.arrow;dy=0.6;dx=40;notch=0;" vertex="1" parent="1">
          <mxGeometry x="118" y="426" width="84" height="50" as="geometry" />
        </mxCell>
        <mxCell id="zXytNvUXBCk0Ej2Y4z_r-23" value="query" style="html=1;shadow=0;dashed=0;align=center;verticalAlign=middle;shape=mxgraph.arrows2.arrow;dy=0.6;dx=40;notch=0;" vertex="1" parent="1">
          <mxGeometry x="342" y="415" width="84" height="50" as="geometry" />
        </mxCell>
      </root>
    </mxGraphModel>
  </diagram>
</mxfile>
